<?xml version="1.0" encoding="utf-8"?>
<!-- Generator: Adobe Illustrator 16.0.0, SVG Export Plug-In . SVG Version: 6.00 Build 0)  -->
<!DOCTYPE svg PUBLIC "-//W3C//DTD SVG 1.1//EN" "http://www.w3.org/Graphics/SVG/1.1/DTD/svg11.dtd">
<svg version="1.1" id="Capa_1" xmlns="http://www.w3.org/2000/svg" xmlns:xlink="http://www.w3.org/1999/xlink" x="0px" y="0px"
	 width="32px" height="32px" viewBox="0 0 32 32" enable-background="new 0 0 32 32" xml:space="preserve">
<path fill="#2D2220" d="M19,25.5c0-0.276-0.224-0.5-0.5-0.5h-9C9.224,25,9,25.224,9,25.5l0,0C9,25.776,9.224,26,9.5,26h9
	C18.776,26,19,25.776,19,25.5L19,25.5z"/>
<path fill="#BCBCBC" d="M11.46,22.46L8.75,27c0,0-0.49,0.02-1.11,0.06c-0.51,0.03-1.1,0.08-1.58,0.16
	c-0.12,0.021-0.23,0.04-0.33,0.061c-0.05,0.01-0.1,0.02-0.15,0.029l-0.26,0.07l0.39-0.39c-0.18-0.49-1.04-0.38-1.04-0.38L7.1,24.52
	l3.45-2.97L11.46,22.46z"/>
<g>
	<polygon fill="#BCBCBC" points="13.46,21.5 12.6,22.19 10.81,20.4 11.5,19.54 	"/>
	<polygon fill="#BCBCBC" points="16.64,18.94 15.86,19.56 14.24,20.87 12.13,18.75 13.43,17.13 14.05,16.35 	"/>
	<path fill="#2D2220" d="M28.26,3.77C26.82,2.33,25.47,3.29,25.03,3.6c-2.65,1.77-9.66,6.92-11.88,10.03L8.5,19.5l0.36,0.36L4,22.75
		c0,4-1,5.52-1,5.52L3.73,29c0,0,1.52-1,5.52-1l2.9-4.86l0.35,0.36l5.85-4.66C21.11,16.87,26.61,9.62,28.45,6.99
		C29.24,5.87,29.17,4.67,28.26,3.77z M8.75,27c0,0-2.18,0.07-3.17,0.31l-0.26,0.07l2.02-2.03c0.2-0.189,0.2-0.51,0-0.699
		c-0.19-0.2-0.51-0.2-0.71,0l-1.96,1.96l0.04-0.181C4.96,25.44,5,23.25,5,23.25l4.55-2.7l1.91,1.91L8.75,27z M12.6,22.19L9.81,19.4
		l0.69-0.86l2.96,2.96L12.6,22.19z M14.24,20.87l-2.11-2.12l-1-1l1.3-1.62l3.43,3.43L14.24,20.87z M17.77,18.03l-1.129,0.91
		l-3.59-3.59l0.91-1.13c0.57-0.79,1.5-1.76,2.6-2.77l1,1l2.95,2.96C19.47,16.55,18.51,17.5,17.77,18.03z M27.64,6.42
		c-1.18,1.67-3.949,5.37-6.46,8.24l-2.88-2.88l-1-1c2.8-2.46,6.38-5.08,8.28-6.35C25.84,4.25,26.22,4,26.62,4
		c0.31,0,0.62,0.15,0.939,0.48c0.181,0.18,0.311,0.37,0.37,0.58c0.03,0.06,0.04,0.13,0.051,0.19C28.05,5.61,27.93,6,27.64,6.42z"/>
	<path fill="#5FFFBA" d="M20.51,15.41c-1.04,1.14-2,2.09-2.74,2.62l-1.129,0.91l-2.59-2.59l0.91-1.13c0.57-0.79,1.5-1.76,2.6-2.77
		L20.51,15.41z"/>
	<path fill="#5FFFBA" d="M27.64,6.42c-1.18,1.67-3.949,5.37-6.46,8.24l-2.88-2.88c2.8-2.46,6.38-5.08,8.28-6.35
		C26.84,5.25,27.22,5,27.62,5c0.1,0,0.21,0.02,0.31,0.06C28.08,5.48,27.98,5.93,27.64,6.42z"/>
</g>
<path fill="#2D2220" d="M20,28.5c0-0.276-0.224-0.5-0.5-0.5h-16C3.224,28,3,28.224,3,28.5l0,0C3,28.776,3.224,29,3.5,29h16
	C19.776,29,20,28.776,20,28.5L20,28.5z"/>
<path fill="#2D2220" d="M23,25.5c0-0.276-0.224-0.5-0.5-0.5h-2c-0.276,0-0.5,0.224-0.5,0.5l0,0c0,0.276,0.224,0.5,0.5,0.5h2
	C22.776,26,23,25.776,23,25.5L23,25.5z"/>
<path fill="#2D2220" d="M26,25.5c0-0.276-0.224-0.5-0.5-0.5h-1c-0.276,0-0.5,0.224-0.5,0.5l0,0c0,0.276,0.224,0.5,0.5,0.5h1
	C25.776,26,26,25.776,26,25.5L26,25.5z"/>
<path fill="#2D2220" d="M24,28.5c0-0.276-0.224-0.5-0.5-0.5h-2c-0.276,0-0.5,0.224-0.5,0.5l0,0c0,0.276,0.224,0.5,0.5,0.5h2
	C23.776,29,24,28.776,24,28.5L24,28.5z"/>
<path fill="#2D2220" d="M27,28.5c0-0.276-0.224-0.5-0.5-0.5h-1c-0.276,0-0.5,0.224-0.5,0.5l0,0c0,0.276,0.224,0.5,0.5,0.5h1
	C26.776,29,27,28.776,27,28.5L27,28.5z"/>
</svg>
