<?xml version="1.0" encoding="utf-8"?>
<!-- Generator: Adobe Illustrator 16.0.0, SVG Export Plug-In . SVG Version: 6.00 Build 0)  -->
<!DOCTYPE svg PUBLIC "-//W3C//DTD SVG 1.1//EN" "http://www.w3.org/Graphics/SVG/1.1/DTD/svg11.dtd">
<svg version="1.1" id="Capa_1" xmlns="http://www.w3.org/2000/svg" xmlns:xlink="http://www.w3.org/1999/xlink" x="0px" y="0px"
	 width="32px" height="32px" viewBox="0 0 32 32" enable-background="new 0 0 32 32" xml:space="preserve">
<circle fill="#FFD878" cx="15.5" cy="14.5" r="13.5"/>
<polygon fill="#FFFFFF" points="10.5,15.5 10.5,18.5 12.5,20.5 12.5,23.5 18.5,23.5 18.5,20.5 "/>
<g>
	<path fill="#FFFFFF" d="M24.14,16.07c-0.37,0.64-0.979,1.01-1.67,1.01c-0.54,0-0.95-0.21-1.06-0.28L10,10.21
		c-0.1-0.05-0.44-0.27-0.7-0.67C8.89,8.92,8.88,8.17,9.27,7.48c0.27-0.47,0.88-1.02,1.71-1.02c0.35,0,0.69,0.1,1.02,0.29l11.41,6.59
		C24.25,13.82,24.79,14.94,24.14,16.07z"/>
	<path fill="#FFFFFF" d="M22.27,20.71c-0.369,0.64-0.97,1-1.659,1c-0.54,0-0.95-0.21-1.061-0.27L8.14,14.86
		c-0.1-0.06-0.44-0.28-0.71-0.68c-0.41-0.62-0.42-1.37-0.02-2.06c0.27-0.47,0.88-1.02,1.7-1.02c0.35,0,0.69,0.1,1.03,0.29
		l11.41,6.59C22.39,18.46,22.92,19.58,22.27,20.71z"/>
	<path fill="#FFFFFF" d="M13.61,6.32c-0.41-0.63-0.42-1.38-0.03-2.06c0.27-0.47,0.89-1.03,1.71-1.03c0.35,0,0.69,0.1,1.03,0.29
		l6.5,3.76c0.1,0.06,0.439,0.28,0.71,0.67c0.41,0.63,0.42,1.38,0.029,2.06c-0.369,0.65-0.989,1.01-1.68,1.01
		c-0.54,0-0.939-0.21-1.06-0.27l-6.5-3.76C14.22,6.93,13.87,6.71,13.61,6.32z"/>
</g>
<g>
	<rect x="10" y="23" fill="#BFBFBF" width="11" height="5"/>
</g>
<path fill="none" stroke="#4D5152" stroke-width="1.0001" stroke-linecap="round" stroke-linejoin="round" stroke-miterlimit="10" d="
	M12.5,23.5v-3l-2-2c0,0,0-2.63,0-2.5"/>
<line fill="none" stroke="#4D5152" stroke-width="1.0001" stroke-linecap="round" stroke-miterlimit="10" x1="18.5" y1="20.5" x2="18.5" y2="23.5"/>
<g>
	<path fill="#AAAAAA" d="M12,27v2c0,0,0,2,2,2h3c0,0,2,0,2-2v-2H12z"/>
</g>
<g>
	<g>
		<path fill="#4D5152" d="M20,24v3h-9v-3H20 M21,23H10v5h11V23L21,23z"/>
	</g>
</g>
<g>
	<g>
		<path fill="#4D5152" d="M18,28v1c0,0.806-0.55,0.988-1,1h-3c-0.805,0-0.988-0.55-1-1v-1H18 M19,27h-7v2c0,0,0,2,2,2h3c0,0,2,0,2-2
			V27L19,27z"/>
	</g>
</g>
<g>
	<g>
		<path fill="#4D5152" d="M9.116,12.101c0.156,0,0.332,0.043,0.525,0.155l11.406,6.587c0,0,0.867,0.5,0.367,1.366
			c-0.232,0.401-0.543,0.509-0.81,0.509c-0.309,0-0.558-0.144-0.558-0.144L8.641,13.988c0,0-0.866-0.5-0.366-1.366
			C8.275,12.622,8.576,12.101,9.116,12.101 M9.116,11.1L9.116,11.1c-0.825,0-1.435,0.551-1.707,1.022
			c-0.395,0.685-0.385,1.435,0.027,2.059c0.264,0.399,0.606,0.616,0.706,0.673l11.405,6.586c0.113,0.065,0.523,0.277,1.058,0.277
			c0.694,0,1.305-0.367,1.676-1.009c0.396-0.685,0.385-1.436-0.028-2.06c-0.264-0.399-0.606-0.616-0.705-0.673L10.141,11.39
			C9.809,11.198,9.463,11.1,9.116,11.1L9.116,11.1z"/>
	</g>
</g>
<g>
	<g>
		<path fill="#4D5152" d="M10.978,7.461c0.156,0,0.332,0.043,0.525,0.155l11.407,6.586c0,0,0.865,0.5,0.365,1.366
			c-0.232,0.402-0.543,0.509-0.809,0.509c-0.308,0-0.557-0.144-0.557-0.144L10.503,9.348c0,0-0.866-0.5-0.366-1.366
			C10.137,7.982,10.438,7.461,10.978,7.461 M10.978,6.46L10.978,6.46c-0.825,0-1.435,0.551-1.707,1.022
			C8.876,8.167,8.886,8.917,9.298,9.541c0.264,0.399,0.606,0.616,0.705,0.673l11.407,6.586c0.112,0.064,0.521,0.277,1.057,0.277
			c0.693,0,1.304-0.368,1.675-1.009c0.649-1.125,0.108-2.247-0.73-2.732L12.003,6.75C11.671,6.558,11.326,6.46,10.978,6.46
			L10.978,6.46z"/>
	</g>
</g>
<g>
	<g>
		<path fill="#4D5152" d="M15.29,4.235c0.156,0,0.332,0.043,0.526,0.155l6.506,3.758c0,0,0.867,0.5,0.367,1.366
			c-0.232,0.402-0.543,0.51-0.81,0.51c-0.309,0-0.558-0.144-0.558-0.144l-6.506-3.758c0,0-0.867-0.5-0.367-1.366
			C14.449,4.756,14.75,4.235,15.29,4.235 M15.29,3.234L15.29,3.234c-0.825,0-1.436,0.551-1.708,1.022
			c-0.395,0.684-0.385,1.435,0.028,2.06c0.264,0.399,0.607,0.616,0.706,0.672l6.506,3.758c0.113,0.065,0.522,0.278,1.058,0.278
			c0.694,0,1.306-0.368,1.676-1.01c0.396-0.684,0.385-1.435-0.028-2.06c-0.264-0.399-0.606-0.616-0.705-0.672l-6.506-3.758
			C15.983,3.332,15.638,3.234,15.29,3.234L15.29,3.234z"/>
	</g>
</g>
</svg>
