<?xml version="1.0" encoding="utf-8"?>
<!-- Generator: Adobe Illustrator 16.0.0, SVG Export Plug-In . SVG Version: 6.00 Build 0)  -->
<!DOCTYPE svg PUBLIC "-//W3C//DTD SVG 1.1//EN" "http://www.w3.org/Graphics/SVG/1.1/DTD/svg11.dtd">
<svg version="1.1" id="Capa_1" xmlns="http://www.w3.org/2000/svg" xmlns:xlink="http://www.w3.org/1999/xlink" x="0px" y="0px"
	 width="32px" height="32px" viewBox="0 0 32 32" enable-background="new 0 0 32 32" xml:space="preserve">
<circle fill="#5FFFBA" cx="17" cy="28" r="1"/>
<rect x="13" y="4" fill="#2D2220" width="6" height="1"/>
<g>
	<path fill="#2D2220" d="M13,4v1h6V4H13z M13,4v1h6V4H13z M13,4v1h6V4H13z M13,4v1h6V4H13z M10,24v1h12v-1H10z M13,4v1h6V4H13z
		 M10,24v1h12v-1H10z M13,4v1h6V4H13z M10,24v1h12v-1H10z M23,2H9C8.45,2,8,2.45,8,3v5h1V7h14v21c0,0.55-0.45,1-1,1H10
		c-0.55,0-1-0.45-1-1V13H8v16c0,0.55,0.45,1,1,1h14c0.55,0,1-0.45,1-1V3C24,2.45,23.55,2,23,2z M23,6H9V4c0-0.55,0.45-1,1-1h12
		c0.55,0,1,0.45,1,1V6z M22,24H10v1h12V24z M13,5h6V4h-6V5z M10,24v1h12v-1H10z M13,4v1h6V4H13z M13,4v1h6V4H13z M13,4v1h6V4H13z
		 M13,4v1h6V4H13z"/>
	<rect x="13" y="4" fill="#2D2220" width="6" height="1"/>
</g>
<rect x="13" y="4" fill="#2D2220" width="6" height="1"/>
<rect x="13" y="4" fill="#2D2220" width="6" height="1"/>
<rect x="14" y="5" fill="#5FFFBA" width="6" height="1"/>
<rect x="15" y="7" fill="#5FFFBA" width="1" height="17"/>
<rect x="13" y="7" fill="#5FFFBA" width="1" height="17"/>
<rect x="17" y="7" fill="#5FFFBA" width="6" height="17"/>
<circle fill="#2D2220" cx="16" cy="27" r="1"/>
<path fill="#2D2220" d="M10,9.5C10,9.224,9.776,9,9.5,9h-2C7.224,9,7,9.224,7,9.5l0,0C7,9.776,7.224,10,7.5,10h2
	C9.776,10,10,9.776,10,9.5L10,9.5z"/>
<path fill="#2D2220" d="M10,11.5c0-0.276-0.224-0.5-0.5-0.5h-2C7.224,11,7,11.224,7,11.5l0,0C7,11.776,7.224,12,7.5,12h2
	C9.776,12,10,11.776,10,11.5L10,11.5z"/>
</svg>
