<?xml version="1.0" encoding="utf-8"?>
<!-- Generator: Adobe Illustrator 16.0.0, SVG Export Plug-In . SVG Version: 6.00 Build 0)  -->
<!DOCTYPE svg PUBLIC "-//W3C//DTD SVG 1.1//EN" "http://www.w3.org/Graphics/SVG/1.1/DTD/svg11.dtd">
<svg version="1.1" id="Capa_1" xmlns="http://www.w3.org/2000/svg" xmlns:xlink="http://www.w3.org/1999/xlink" x="0px" y="0px"
	 width="32px" height="32px" viewBox="0 0 32 32" enable-background="new 0 0 32 32" xml:space="preserve">
<g>
	<path fill="#75EA9C" d="M13.04,15c0,3.31-3.54,4.54-5.04,4.91V16.7l2.85-2.85c0.2-0.19,0.2-0.51,0-0.7c-0.19-0.2-0.51-0.2-0.7,0
		L8,15.3v-3.6l1.85-1.85c0.2-0.19,0.2-0.51,0-0.7c-0.19-0.2-0.51-0.2-0.7,0L8,10.3V7.5C8,7.22,7.78,7,7.5,7S7,7.22,7,7.5v4.8
		l-1.15-1.15c-0.19-0.2-0.51-0.2-0.7,0c-0.2,0.19-0.2,0.51,0,0.7L7,13.7v3.6l-2.15-2.15c-0.19-0.2-0.51-0.2-0.7,0
		c-0.2,0.19-0.2,0.51,0,0.7L7,18.7v1.21C5.5,19.54,1.96,18.31,1.96,15c0-3.63,3.85-9.77,5.54-12.3C9.19,5.23,13.04,11.37,13.04,15"
		/>
	<path fill="#FFD878" d="M31,10.44c0,1.54-0.41,2.99-1.13,4.24c-0.75,1.28-2.18,3.47-3.43,5.32c-0.15,0.23-0.301,0.45-0.44,0.67
		v4.28C26,26.5,23.71,28,22.5,28S19,26.5,19,24.95v-4.28c-0.14-0.22-0.29-0.439-0.44-0.67c-1.239-1.85-2.68-4.03-3.43-5.32
		C14.41,13.43,14,11.99,14,10.44c0-4.69,3.81-8.5,8.5-8.5S31,5.75,31,10.44"/>
	<path fill="#AAAAAA" d="M26.44,20c-0.15,0.23-0.301,0.45-0.44,0.67v4.28C26,26.5,23.71,28,22.5,28S19,26.5,19,24.95v-4.28
		c-0.14-0.22-0.29-0.439-0.44-0.67H26.44z"/>
	<path fill="#4D5152" d="M22.5,1.94c-4.69,0-8.5,3.81-8.5,8.5c0,1.55,0.41,2.99,1.13,4.24c0.84,1.45,2.55,4.02,3.87,5.99v4.28
		c0,1.359,1.75,2.67,3,2.979v0.57c0,1.41-1.25,1.5-1.5,1.5h-8C8.08,30,8,26.64,8,26.5v-5.6c1.53-0.36,6-1.75,6-5.9
		c0-5-6.5-14-6.5-14S1,10,1,15c0,4.15,4.47,5.54,6,5.9v5.6c0,0.04,0.06,4.5,5.5,4.5h8c0.86,0,2.5-0.52,2.5-2.5v-0.57
		c1.25-0.31,3-1.62,3-2.979v-4.28c1.33-1.97,3.03-4.55,3.87-5.99c0.72-1.25,1.13-2.7,1.13-4.24C31,5.75,27.19,1.94,22.5,1.94 M7.5,7
		C7.22,7,7,7.22,7,7.5v4.8l-1.15-1.15c-0.19-0.2-0.51-0.2-0.7,0c-0.2,0.19-0.2,0.51,0,0.7L7,13.7v3.6l-2.15-2.15
		c-0.19-0.2-0.51-0.2-0.7,0c-0.2,0.19-0.2,0.51,0,0.7L7,18.7v1.21C5.5,19.54,1.96,18.31,1.96,15c0-3.63,3.85-9.77,5.54-12.3
		c1.69,2.53,5.54,8.67,5.54,12.3c0,3.31-3.54,4.54-5.04,4.91V16.7l2.85-2.85c0.2-0.19,0.2-0.51,0-0.7c-0.19-0.2-0.51-0.2-0.7,0
		L8,15.3v-3.6l1.85-1.85c0.2-0.19,0.2-0.51,0-0.7c-0.19-0.2-0.51-0.2-0.7,0L8,10.3V7.5C8,7.22,7.78,7,7.5,7 M25,24.95
		C25,26,23.33,27,22.5,27S20,26,20,24.95V21h5V24.95z M29,14.23c-0.82,1.42-2.61,4.04-3.81,5.77H19.81
		c-1.199-1.73-2.989-4.35-3.81-5.77c-0.64-1.1-1-2.38-1-3.74c0-4.15,3.36-7.51,7.5-7.51S30,6.34,30,10.49
		C30,11.85,29.64,13.13,29,14.23"/>
</g>
</svg>
