<?xml version="1.0" encoding="utf-8"?>
<!-- Generator: Adobe Illustrator 16.0.0, SVG Export Plug-In . SVG Version: 6.00 Build 0)  -->
<!DOCTYPE svg PUBLIC "-//W3C//DTD SVG 1.1//EN" "http://www.w3.org/Graphics/SVG/1.1/DTD/svg11.dtd">
<svg version="1.1" id="Capa_1" xmlns="http://www.w3.org/2000/svg" xmlns:xlink="http://www.w3.org/1999/xlink" x="0px" y="0px"
	 width="32px" height="32px" viewBox="0 0 32 32" enable-background="new 0 0 32 32" xml:space="preserve">
<g>
	<path fill="#75EA9C" d="M13.96,14c0,4.15-4.47,5.54-6,5.9v3.6c0,0.28-0.22,0.5-0.5,0.5c-0.28,0-0.5-0.22-0.5-0.5v-3.6
		c-1.53-0.36-6-1.75-6-5.9c0-5,6.5-14,6.5-14S13.96,9,13.96,14"/>
	<path fill="#4D5152" d="M7.46,0c0,0-6.5,9-6.5,14c0,4.15,4.47,5.54,6,5.9v3.6c0,0.28,0.22,0.5,0.5,0.5c0.28,0,0.5-0.22,0.5-0.5
		v-3.6c1.53-0.36,6-1.75,6-5.9C13.96,9,7.46,0,7.46,0 M7.96,18.91V15.7l2.85-2.85c0.2-0.19,0.2-0.51,0-0.7
		c-0.189-0.2-0.51-0.2-0.699,0L7.96,14.3v-3.6l1.85-1.85c0.2-0.19,0.2-0.51,0-0.7c-0.189-0.2-0.51-0.2-0.699,0L7.96,9.3V6.5
		c0-0.28-0.22-0.5-0.5-0.5c-0.28,0-0.5,0.22-0.5,0.5v4.8l-1.15-1.15c-0.19-0.2-0.51-0.2-0.7,0c-0.2,0.19-0.2,0.51,0,0.7l1.85,1.85
		v3.6l-2.15-2.149c-0.19-0.2-0.51-0.2-0.7,0c-0.2,0.189-0.2,0.51,0,0.699l2.85,2.85v1.21C5.46,18.54,1.92,17.31,1.92,14
		c0-3.63,3.85-9.77,5.54-12.3C9.15,4.23,13,10.37,13,14C13,17.31,9.46,18.54,7.96,18.91"/>
	<path fill="#4D5152" d="M30.49,18.88c-1.01-1.07-2.51-1.54-8.01-2.04c-1.5-3-4-3.84-8-3.84c-4.5,0-8,2.5-12,4
		c-0.94,0.35-1.54,0.83-1.54,1.58s1.04,2.99,1.45,4.61c0.29,1.149,1.08,2.239,3.62,2.64C6.18,27.61,7.66,29,9.48,29
		c1.76,0,3.2-1.31,3.45-3h9.1c0.24,1.69,1.689,3,3.45,3c1.76,0,3.199-1.31,3.449-3h2.051C31.51,26,32,25.46,32,24.98
		C32,22.5,31.53,19.96,30.49,18.88 M14.98,14.02c3.47,0.07,5.4,0.88,6.59,3.27l0.06,0.12L19.771,19H14.98V14.02z M13.98,14.02V19
		H9.29l-1.55-3.15C9.8,14.93,11.82,14.13,13.98,14.02 M9.48,28c-1.38,0-2.5-1.12-2.5-2.5S8.1,23,9.48,23s2.5,1.12,2.5,2.5
		S10.86,28,9.48,28 M25.48,28c-1.38,0-2.5-1.12-2.5-2.5s1.12-2.5,2.5-2.5s2.5,1.12,2.5,2.5S26.86,28,25.48,28 M30.99,24.93L30.93,25
		h-2c-0.25-1.69-1.689-3-3.449-3c-1.761,0-3.21,1.31-3.45,3h-9.1c-0.25-1.69-1.69-3-3.45-3c-1.69,0-3.11,1.2-3.43,2.8
		c-1.54-0.31-2.46-0.95-2.76-1.95c-0.81-2.779-1.25-3.81-1.25-3.81c-0.17-0.55,0.17-0.9,0.87-1.14c1.36-0.471,2.65-1.061,3.92-1.641
		l1.7,3.46C8.62,19.89,8.79,20,8.98,20h11c0.13,0,0.26-0.05,0.35-0.15l2.31-1.989c5.381,0.51,6.44,0.989,7.12,1.71
		c0.71,0.739,1.23,2.93,1.23,5.14V24.93z"/>
	<path fill="#ACF0F2" d="M13.98,14.02V19H9.29l-1.55-3.15C9.8,14.93,11.82,14.13,13.98,14.02"/>
	<path fill="#ACF0F2" d="M21.63,17.41L19.77,19h-4.79v-4.98c3.47,0.07,5.4,0.88,6.59,3.27L21.63,17.41z"/>
	<path fill="#AAAAAA" d="M27.98,25.5c0,1.38-1.12,2.5-2.5,2.5c-1.381,0-2.5-1.12-2.5-2.5S24.1,23,25.48,23
		C26.86,23,27.98,24.12,27.98,25.5"/>
	<path fill="#AAAAAA" d="M11.98,25.5c0,1.38-1.12,2.5-2.5,2.5s-2.5-1.12-2.5-2.5S8.1,23,9.48,23S11.98,24.12,11.98,25.5"/>
	<path fill="#E88C77" d="M30.99,24.71v0.22L30.93,25h-2c-0.25-1.69-1.689-3-3.449-3c-1.761,0-3.21,1.31-3.45,3h-9.1
		c-0.25-1.69-1.69-3-3.45-3c-1.69,0-3.11,1.2-3.43,2.8c-1.54-0.31-2.46-0.95-2.76-1.95c-0.81-2.779-1.25-3.81-1.25-3.81
		c-0.17-0.55,0.17-0.9,0.87-1.14c1.36-0.471,2.65-1.061,3.92-1.641l1.7,3.46C8.62,19.89,8.79,20,8.98,20h11
		c0.13,0,0.26-0.05,0.35-0.15l2.31-1.989c5.381,0.51,6.44,0.989,7.12,1.71C30.47,20.31,30.99,22.5,30.99,24.71"/>
	<path fill="#4D5152" d="M16,28.5c0-0.276-0.224-0.5-0.5-0.5h-13C2.224,28,2,28.224,2,28.5S2.224,29,2.5,29h13
		C15.776,29,16,28.776,16,28.5"/>
	<path fill="#4D5152" d="M32,28.5c0-0.276-0.224-0.5-0.5-0.5h-13c-0.276,0-0.5,0.224-0.5,0.5s0.224,0.5,0.5,0.5h13
		C31.776,29,32,28.776,32,28.5"/>
</g>
</svg>
