<?xml version="1.0" encoding="utf-8"?>
<!-- Generator: Adobe Illustrator 16.0.0, SVG Export Plug-In . SVG Version: 6.00 Build 0)  -->
<!DOCTYPE svg PUBLIC "-//W3C//DTD SVG 1.1//EN" "http://www.w3.org/Graphics/SVG/1.1/DTD/svg11.dtd">
<svg version="1.1" id="Capa_1" xmlns="http://www.w3.org/2000/svg" xmlns:xlink="http://www.w3.org/1999/xlink" x="0px" y="0px"
	 width="32px" height="32px" viewBox="0 0 32 32" enable-background="new 0 0 32 32" xml:space="preserve">
<circle fill="#FFD878" cx="17" cy="15" r="15"/>
<g>
	<circle fill="#67DDE0" cx="17" cy="15" r="14"/>
</g>
<path fill="#75EA9C" d="M30.5,14.5c-0.025-0.024-0.051-0.048-0.077-0.072c-2.024-1.842-5.936-0.915-6.923,0.072
	c-1,1,1.235,3.479-2,5c-3.021,1.42-0.813,4.688-4,6c-2.067,0.852-4-2-3-5c1-3-5.888-1.634-4-7c1.05-2.983,3.885-2.252,8-2
	c3.897,0.239,3-4,1-5s-7,3-8,1s4-6,4-6s6.812-0.475,10.753,3.434s4.222,9.542,4.222,9.542"/>
<g>
	<path fill="#4D5152" d="M17,2c7.168,0,13,5.832,13,13c0,7.168-5.832,13-13,13C9.832,28,4,22.168,4,15C4,7.832,9.832,2,17,2 M17,1
		C9.268,1,3,7.268,3,15c0,7.732,6.268,14,14,14c7.732,0,14-6.268,14-14C31,7.268,24.732,1,17,1L17,1z"/>
</g>
<path fill="none" stroke="#4D5152" stroke-miterlimit="10" d="M15.5,1.5c0,0-5,4-4,6s6-2,8-1s2.897,5.239-1,5
	c-4.115-0.252-6.95-0.983-8,2c-1.888,5.366,5,4,4,7c-1,3,0.932,5.852,3,5c3.188-1.313,0.979-4.58,4-6c3.235-1.521,1-4,2-5
	s5-1.938,7,0"/>
<g>
	<path fill="#FFD878" d="M9,31c-6,0-8-4-8-8S9,9,9,9l1,8l2-5c0,0,2,5,3,10S14,31,9,31z"/>
</g>
<g>
	<path fill="#E88C77" d="M9,31c0,0-3,0-2-4c0.767-3.067,3-5,3-5s2,3,2,6S11,31,9,31z"/>
</g>
<g>
	<path fill="#4D5152" d="M9,9l1,8l2-5c0,0,2,5,3,10s-1,9-6,9c-6,0-8-4-8-8S9,9,9,9 M9.699,6.526l-1.479,1.85
		C7.378,9.427,0,18.771,0,23c0,5.636,3.364,9,9,9c2.379,0,4.314-0.827,5.597-2.392c1.526-1.862,2.017-4.634,1.383-7.805
		c-1.006-5.032-2.969-9.967-3.052-10.175L12,9.308l-0.929,2.321l-0.56,1.4L9.992,8.876L9.699,6.526L9.699,6.526z"/>
</g>
<g>
	<path fill="#4D5152" d="M10,22c0,0,2,3,2,6s-1,3-3,3c0,0-3,0-2-4C7.767,23.933,10,22,10,22 M10.203,20.502l-0.857,0.742
		c-0.101,0.087-2.481,2.178-3.316,5.514c-0.429,1.715-0.268,3.069,0.478,4.024C7.432,31.966,8.842,32,9,32c2.342,0,4-0.287,4-4
		c0-3.266-2.08-6.422-2.168-6.555L10.203,20.502L10.203,20.502z"/>
</g>
</svg>
