<svg xmlns="http://www.w3.org/2000/svg" version="1.1" width="680" height="1024">
<rect x="0" y="0" width="680" height="1024" fill="#bcac9d" />
<g transform="scale(4.000000) translate(0.5 0.5)">
<polygon fill="#794410" fill-opacity="0.501961" points="80,-16 161,145 40,100" />
<polygon fill="#d9d6d2" fill-opacity="0.501961" points="-16,254 112,94 185,255" />
<polygon fill="#753900" fill-opacity="0.501961" points="44,143 12,163 46,80" />
<polygon fill="#00000b" fill-opacity="0.501961" points="65,61 88,75 80,107" />
<polygon fill="#965b25" fill-opacity="0.501961" points="133,89 113,172 156,129" />
<polygon fill="#bec9ce" fill-opacity="0.501961" points="90,186 58,72 8,266" />
<polygon fill="#cfc9c4" fill-opacity="0.501961" points="17,137 75,-8 -8,7" />
<polygon fill="#cbcdd4" fill-opacity="0.501961" points="89,-16 185,8 115,60" />
<polygon fill="#623e30" fill-opacity="0.501961" points="140,93 60,96 76,117" />
<polygon fill="#d3ad82" fill-opacity="0.501961" points="109,176 109,60 151,210" />
<polygon fill="#d2bb99" fill-opacity="0.501961" points="73,50 114,49 72,71" />
<polygon fill="#d9cfc2" fill-opacity="0.501961" points="93,97 108,89 87,68" />
<polygon fill="#cdd1d0" fill-opacity="0.501961" points="3,271 66,231 14,155" />
<polygon fill="#e4d4cb" fill-opacity="0.501961" points="158,266 185,182 137,147" />
<polygon fill="#a25b1b" fill-opacity="0.501961" points="100,42 86,-16 53,56" />
<polygon fill="#cc8e49" fill-opacity="0.501961" points="151,56 106,122 109,55" />
<polygon fill="#000000" fill-opacity="0.501961" points="91,68 104,59 107,72" />
<polygon fill="#b8b1a5" fill-opacity="0.501961" points="73,86 57,100 34,33" />
<polygon fill="#7c4616" fill-opacity="0.501961" points="32,148 28,109 53,96" />
<polygon fill="#c8c6c6" fill-opacity="0.501961" points="49,119 79,212 130,112" />
<polygon fill="#5b351e" fill-opacity="0.501961" points="144,113 133,126 120,81" />
<polygon fill="#cabdb4" fill-opacity="0.501961" points="185,59 158,160 134,-16" />
<polygon fill="#d79c99" fill-opacity="0.501961" points="91,103 66,99 79,111" />
<polygon fill="#000000" fill-opacity="0.501961" points="70,95 92,99 81,89" />
<polygon fill="#a59480" fill-opacity="0.501961" points="52,198 10,150 25,122" />
<polygon fill="#b3c4d4" fill-opacity="0.501961" points="58,87 65,92 71,68" />
<polygon fill="#f3fbff" fill-opacity="0.501961" points="11,58 19,70 27,52" />
<polygon fill="#251307" fill-opacity="0.501961" points="107,90 78,117 104,104" />
<polygon fill="#c69d71" fill-opacity="0.501961" points="165,77 142,99 91,49" />
<polygon fill="#00131a" fill-opacity="0.501961" points="74,62 61,72 62,63" />
<polygon fill="#b4966a" fill-opacity="0.501961" points="35,153 48,152 49,106" />
<polygon fill="#c49366" fill-opacity="0.501961" points="161,164 159,122 137,147" />
<polygon fill="#f9ffff" fill-opacity="0.501961" points="156,112 158,98 147,101" />
<polygon fill="#bdbfbe" fill-opacity="0.501961" points="-16,192 49,77 -14,127" />
<polygon fill="#bba58d" fill-opacity="0.501961" points="80,48 -6,111 -12,81" />
<polygon fill="#c3ad98" fill-opacity="0.501961" points="113,156 185,205 118,201" />
<polygon fill="#000b0e" fill-opacity="0.501961" points="72,84 89,78 71,72" />
<polygon fill="#c79f6e" fill-opacity="0.501961" points="122,97 73,122 130,115" />
<polygon fill="#f2f4f7" fill-opacity="0.501961" points="12,160 17,177 28,170" />
<polygon fill="#a55910" fill-opacity="0.501961" points="119,107 128,86 117,75" />
<polygon fill="#252e34" fill-opacity="0.501961" points="74,115 87,114 65,105" />
<polygon fill="#825633" fill-opacity="0.501961" points="138,112 124,132 154,147" />
<polygon fill="#c3b9ae" fill-opacity="0.501961" points="127,232 23,195 172,189" />
<polygon fill="#bba890" fill-opacity="0.501961" points="42,93 21,36 56,53" />
<polygon fill="#c08444" fill-opacity="0.501961" points="133,63 94,75 106,93" />
<polygon fill="#a6805b" fill-opacity="0.501961" points="93,61 93,7 117,59" />
<polygon fill="#c2bcb3" fill-opacity="0.501961" points="76,63 77,51 97,80" />
<polygon fill="#ded3cd" fill-opacity="0.501961" points="185,177 154,193 130,154" />
<polygon fill="#ce9d67" fill-opacity="0.501961" points="126,126 114,156 137,187" />
<polygon fill="#9d7447" fill-opacity="0.501961" points="30,147 10,160 30,161" />
<polygon fill="#4d4147" fill-opacity="0.501961" points="66,110 69,98 61,93" />
<polygon fill="#a99f94" fill-opacity="0.501961" points="83,109 44,111 55,102" />
<polygon fill="#ba8d58" fill-opacity="0.501961" points="163,192 185,177 166,204" />
<polygon fill="#a5a092" fill-opacity="0.501961" points="159,23 163,-16 173,33" />
<polygon fill="#c2c4c2" fill-opacity="0.501961" points="2,208 60,271 79,118" />
<polygon fill="#cbc3be" fill-opacity="0.501961" points="53,204 127,102 106,200" />
<polygon fill="#bbb0a9" fill-opacity="0.501961" points="110,87 89,81 81,91" />
<polygon fill="#9a6331" fill-opacity="0.501961" points="108,54 73,42 71,-6" />
<polygon fill="#cac6c2" fill-opacity="0.501961" points="55,-16 34,81 71,12" />
<polygon fill="#c4bfbf" fill-opacity="0.501961" points="138,-16 179,59 108,46" />
<polygon fill="#ebf3fe" fill-opacity="0.501961" points="112,242 118,252 121,240" />
<polygon fill="#aaaaa9" fill-opacity="0.501961" points="25,171 39,150 57,215" />
<polygon fill="#b89e80" fill-opacity="0.501961" points="28,136 12,130 6,176" />
<polygon fill="#cab49e" fill-opacity="0.501961" points="185,167 161,111 147,168" />
<polygon fill="#b69a76" fill-opacity="0.501961" points="56,55 62,88 34,43" />
<polygon fill="#f0f1f3" fill-opacity="0.501961" points="25,236 13,244 25,252" />
<polygon fill="#eae8e6" fill-opacity="0.501961" points="185,202 156,216 164,233" />
<polygon fill="#94622e" fill-opacity="0.501961" points="52,105 33,105 50,82" />
<polygon fill="#bebbb9" fill-opacity="0.501961" points="41,94 46,42 -7,147" />
<polygon fill="#19262d" fill-opacity="0.501961" points="85,69 90,77 72,70" />
<polygon fill="#b3956d" fill-opacity="0.501961" points="74,69 52,72 37,88" />
<polygon fill="#151813" fill-opacity="0.501961" points="80,88 69,75 88,76" />
<polygon fill="#1a1d17" fill-opacity="0.501961" points="103,62 93,63 100,71" />
<polygon fill="#bca790" fill-opacity="0.501961" points="76,118 95,129 100,111" />
<polygon fill="#b8a791" fill-opacity="0.501961" points="96,209 73,221 72,204" />
<polygon fill="#a9b2bf" fill-opacity="0.501961" points="59,91 69,83 66,98" />
<polygon fill="#885122" fill-opacity="0.501961" points="27,135 46,126 38,101" />
<polygon fill="#d6af87" fill-opacity="0.501961" points="110,174 134,140 146,148" />
<polygon fill="#bbaa9a" fill-opacity="0.501961" points="147,45 138,96 181,92" />
<polygon fill="#826553" fill-opacity="0.501961" points="72,90 71,84 89,92" />
<polygon fill="#c9c0ba" fill-opacity="0.501961" points="29,138 -5,130 6,115" />
<polygon fill="#bd8039" fill-opacity="0.501961" points="83,62 90,60 100,78" />
<polygon fill="#050e0d" fill-opacity="0.501961" points="73,98 92,98 77,90" />
<polygon fill="#594440" fill-opacity="0.501961" points="64,103 73,114 69,101" />
<polygon fill="#4a3f28" fill-opacity="0.501961" points="78,63 68,68 61,61" />
<polygon fill="#593827" fill-opacity="0.501961" points="138,101 127,114 142,118" />
<polygon fill="#c1b2a0" fill-opacity="0.501961" points="73,51 73,67 88,70" />
<polygon fill="#bc8a57" fill-opacity="0.501961" points="146,139 118,136 162,155" />
<polygon fill="#bd7e60" fill-opacity="0.501961" points="89,108 75,108 100,95" />
<polygon fill="#beb4a5" fill-opacity="0.501961" points="3,159 -16,248 12,267" />
<polygon fill="#865b35" fill-opacity="0.501961" points="129,109 131,92 117,90" />
<polygon fill="#cec0b3" fill-opacity="0.501961" points="99,228 126,172 106,146" />
<polygon fill="#c1c7cd" fill-opacity="0.501961" points="48,178 56,114 87,131" />
<polygon fill="#c6a582" fill-opacity="0.501961" points="143,50 127,89 130,53" />
<polygon fill="#d6cac1" fill-opacity="0.501961" points="88,265 185,253 161,224" />
<polygon fill="#b5a38a" fill-opacity="0.501961" points="53,145 47,125 26,164" />
<polygon fill="#c5ab90" fill-opacity="0.501961" points="143,107 164,114 161,137" />
<polygon fill="#c39965" fill-opacity="0.501961" points="119,114 100,80 117,88" />
<polygon fill="#935d2d" fill-opacity="0.501961" points="88,41 71,28 59,57" />
<polygon fill="#845f39" fill-opacity="0.501961" points="26,118 45,129 29,143" />
<polygon fill="#a76421" fill-opacity="0.501961" points="100,83 107,69 115,75" />
<polygon fill="#d3c3b5" fill-opacity="0.501961" points="157,136 176,165 173,199" />
<polygon fill="#e7e6e9" fill-opacity="0.501961" points="23,70 10,63 27,59" />
<polygon fill="#c6c1bf" fill-opacity="0.501961" points="96,210 116,261 -12,268" />
<polygon fill="#b1bbc0" fill-opacity="0.501961" points="76,109 69,102 71,98" />
<polygon fill="#c7ab85" fill-opacity="0.501961" points="59,60 93,60 96,48" />
<polygon fill="#b9bfc0" fill-opacity="0.501961" points="9,148 -6,222 -16,123" />
<polygon fill="#b99c7e" fill-opacity="0.501961" points="13,80 -2,119 1,85" />
<polygon fill="#292c23" fill-opacity="0.501961" points="63,102 64,96 61,98" />
<polygon fill="#85582c" fill-opacity="0.501961" points="22,145 18,153 26,157" />
<polygon fill="#362e27" fill-opacity="0.501961" points="76,111 94,109 81,117" />
<polygon fill="#acb2b4" fill-opacity="0.501961" points="79,121 52,93 67,122" />
<polygon fill="#c9a27c" fill-opacity="0.501961" points="141,183 129,154 124,188" />
<polygon fill="#b7a58e" fill-opacity="0.501961" points="3,140 21,126 28,148" />
<polygon fill="#c39359" fill-opacity="0.501961" points="94,112 129,107 115,98" />
<polygon fill="#e7e7ed" fill-opacity="0.501961" points="148,103 153,110 158,93" />
<polygon fill="#614127" fill-opacity="0.501961" points="36,145 35,130 28,132" />
<polygon fill="#b8a285" fill-opacity="0.501961" points="6,166 4,188 17,181" />
<polygon fill="#c6b7aa" fill-opacity="0.501961" points="27,-3 6,84 -16,75" />
<polygon fill="#a99278" fill-opacity="0.501961" points="117,59 103,62 103,25" />
<polygon fill="#8e4842" fill-opacity="0.501961" points="82,106 68,98 85,102" />
<polygon fill="#a98c65" fill-opacity="0.501961" points="6,221 -16,214 -14,241" />
<polygon fill="#b8966f" fill-opacity="0.501961" points="38,44 28,56 30,45" />
<polygon fill="#c3b8ab" fill-opacity="0.501961" points="94,79 101,92 96,97" />
<polygon fill="#afa492" fill-opacity="0.501961" points="44,107 48,118 62,103" />
<polygon fill="#c3af9f" fill-opacity="0.501961" points="80,110 86,109 89,103" />
<polygon fill="#c09f7c" fill-opacity="0.501961" points="157,68 143,80 152,97" />
<polygon fill="#c9c7c3" fill-opacity="0.501961" points="91,230 8,188 8,240" />
<polygon fill="#e5e5e6" fill-opacity="0.501961" points="11,166 23,163 22,180" />
<polygon fill="#d0c2b9" fill-opacity="0.501961" points="147,175 143,246 164,192" />
<polygon fill="#cabfb5" fill-opacity="0.501961" points="35,-16 27,60 12,40" />
<polygon fill="#bb8945" fill-opacity="0.501961" points="142,63 143,53 136,53" />
<polygon fill="#bcb6b5" fill-opacity="0.501961" points="134,46 131,-13 160,74" />
<polygon fill="#c7bfba" fill-opacity="0.501961" points="140,47 86,-16 117,58" />
<polygon fill="#704a2b" fill-opacity="0.501961" points="128,126 132,109 137,140" />
<polygon fill="#cfb498" fill-opacity="0.501961" points="135,81 147,114 149,92" />
<polygon fill="#c89658" fill-opacity="0.501961" points="137,143 126,128 115,154" />
<polygon fill="#a66d36" fill-opacity="0.501961" points="93,6 72,-7 72,37" />
<polygon fill="#b19166" fill-opacity="0.501961" points="52,65 63,83 57,47" />
<polygon fill="#735c4a" fill-opacity="0.501961" points="85,83 88,94 84,91" />
<polygon fill="#d8bead" fill-opacity="0.501961" points="143,146 155,161 138,172" />
<polygon fill="#ca9b61" fill-opacity="0.501961" points="125,57 92,57 110,63" />
<polygon fill="#e7e9e7" fill-opacity="0.501961" points="137,153 135,161 142,163" />
<polygon fill="#b9b4ab" fill-opacity="0.501961" points="37,45 24,124 49,69" />
<polygon fill="#2f322d" fill-opacity="0.501961" points="74,65 63,71 65,60" />
<polygon fill="#b08956" fill-opacity="0.501961" points="42,94 41,82 50,78" />
<polygon fill="#302518" fill-opacity="0.501961" points="101,96 107,92 104,103" />
<polygon fill="#a99a88" fill-opacity="0.501961" points="78,66 62,72 63,77" />
<polygon fill="#b1b1ae" fill-opacity="0.501961" points="53,79 57,108 62,83" />
<polygon fill="#896041" fill-opacity="0.501961" points="144,113 152,145 129,124" />
</g>
</svg>