<svg xmlns="http://www.w3.org/2000/svg" version="1.1" width="652" height="1024">
<rect x="0" y="0" width="652" height="1024" fill="#8a6659" />
<g transform="scale(4.000000) translate(0.5 0.5)">
<polygon fill="#eecac1" fill-opacity="0.501961" points="147,184 -16,10 91,-16" />
<polygon fill="#010000" fill-opacity="0.501961" points="5,271 178,250 -16,192" />
<polygon fill="#1e180b" fill-opacity="0.501961" points="61,85 -16,90 4,271" />
<polygon fill="#ffffff" fill-opacity="0.501961" points="24,74 30,-16 -16,11" />
<polygon fill="#0e0300" fill-opacity="0.501961" points="159,257 178,83 136,109" />
<polygon fill="#ffceff" fill-opacity="0.501961" points="66,135 63,51 99,148" />
<polygon fill="#b97251" fill-opacity="0.501961" points="167,132 11,151 45,249" />
<polygon fill="#997664" fill-opacity="0.501961" points="36,70 178,20 24,-16" />
<polygon fill="#2e1100" fill-opacity="0.501961" points="178,179 178,258 72,264" />
<polygon fill="#fffffa" fill-opacity="0.501961" points="54,63 113,83 106,60" />
<polygon fill="#ffffff" fill-opacity="0.501961" points="34,40 -3,-16 12,68" />
<polygon fill="#dfb7a0" fill-opacity="0.501961" points="151,27 169,-16 94,50" />
<polygon fill="#060000" fill-opacity="0.501961" points="97,87 83,71 76,83" />
<polygon fill="#a26e5a" fill-opacity="0.501961" points="111,241 31,215 28,84" />
<polygon fill="#ffd2f4" fill-opacity="0.501961" points="99,124 45,63 104,98" />
<polygon fill="#b26f4f" fill-opacity="0.501961" points="135,96 29,195 152,214" />
<polygon fill="#040005" fill-opacity="0.501961" points="57,88 46,160 37,82" />
<polygon fill="#8b0044" fill-opacity="0.501961" points="79,105 93,104 78,126" />
<polygon fill="#ffdec0" fill-opacity="0.501961" points="117,81 135,121 112,117" />
<polygon fill="#110b01" fill-opacity="0.501961" points="5,271 -15,167 51,250" />
<polygon fill="#463224" fill-opacity="0.501961" points="158,157 145,57 178,13" />
<polygon fill="#584338" fill-opacity="0.501961" points="105,61 144,27 128,97" />
<polygon fill="#7b341c" fill-opacity="0.501961" points="96,142 110,88 112,156" />
<polygon fill="#121508" fill-opacity="0.501961" points="5,102 36,130 -16,161" />
<polygon fill="#5c1c00" fill-opacity="0.501961" points="10,36 -16,59 -16,13" />
<polygon fill="#663826" fill-opacity="0.501961" points="178,237 112,199 25,244" />
<polygon fill="#433328" fill-opacity="0.501961" points="41,58 9,90 -8,78" />
<polygon fill="#bcaba6" fill-opacity="0.501961" points="125,110 134,79 162,77" />
<polygon fill="#e8e3d3" fill-opacity="0.501961" points="62,62 27,84 72,80" />
<polygon fill="#a68c78" fill-opacity="0.501961" points="34,146 38,122 77,106" />
<polygon fill="#806157" fill-opacity="0.501961" points="53,25 52,78 21,5" />
<polygon fill="#caaa9c" fill-opacity="0.501961" points="37,154 29,209 46,214" />
<polygon fill="#f7b1ff" fill-opacity="0.501961" points="92,124 54,121 88,142" />
<polygon fill="#4e342b" fill-opacity="0.501961" points="74,46 60,60 86,60" />
<polygon fill="#e7d3cd" fill-opacity="0.501961" points="110,28 93,72 102,120" />
<polygon fill="#ffeee6" fill-opacity="0.501961" points="30,109 35,93 37,112" />
<polygon fill="#4a1805" fill-opacity="0.501961" points="43,157 59,131 48,113" />
<polygon fill="#967464" fill-opacity="0.501961" points="101,69 44,-16 101,1" />
<polygon fill="#be7f62" fill-opacity="0.501961" points="151,161 142,207 51,144" />
<polygon fill="#e0d2cc" fill-opacity="0.501961" points="95,69 72,37 78,24" />
<polygon fill="#763722" fill-opacity="0.501961" points="46,155 47,206 72,239" />
<polygon fill="#4e3d31" fill-opacity="0.501961" points="131,149 178,174 143,84" />
<polygon fill="#c9cdc0" fill-opacity="0.501961" points="54,120 62,94 63,122" />
<polygon fill="#fffef8" fill-opacity="0.501961" points="24,65 4,48 23,-3" />
<polygon fill="#483227" fill-opacity="0.501961" points="-8,165 24,230 35,168" />
<polygon fill="#fef3d9" fill-opacity="0.501961" points="76,117 54,67 75,60" />
<polygon fill="#d79b7e" fill-opacity="0.501961" points="100,112 124,156 134,100" />
<polygon fill="#995e47" fill-opacity="0.501961" points="109,202 68,199 75,133" />
<polygon fill="#2f1d0f" fill-opacity="0.501961" points="178,261 138,267 159,142" />
<polygon fill="#302209" fill-opacity="0.501961" points="68,110 63,124 63,105" />
<polygon fill="#fffffd" fill-opacity="0.501961" points="100,71 77,60 104,88" />
<polygon fill="#b37a62" fill-opacity="0.501961" points="98,146 85,172 -8,156" />
<polygon fill="#b4228a" fill-opacity="0.501961" points="73,121 86,127 89,96" />
<polygon fill="#7b645d" fill-opacity="0.501961" points="41,78 36,48 -8,102" />
<polygon fill="#c8b2ac" fill-opacity="0.501961" points="66,41 65,62 44,39" />
<polygon fill="#000000" fill-opacity="0.501961" points="46,114 35,89 53,85" />
<polygon fill="#431c16" fill-opacity="0.501961" points="100,145 93,123 111,146" />
<polygon fill="#35150b" fill-opacity="0.501961" points="80,87 79,73 95,84" />
<polygon fill="#f6a7f2" fill-opacity="0.501961" points="81,142 102,109 92,96" />
<polygon fill="#fff4e5" fill-opacity="0.501961" points="108,77 124,90 121,97" />
<polygon fill="#7a6054" fill-opacity="0.501961" points="108,45 109,75 133,95" />
<polygon fill="#cb8a5e" fill-opacity="0.501961" points="78,85 86,95 115,89" />
<polygon fill="#b06c4d" fill-opacity="0.501961" points="129,117 116,149 91,123" />
<polygon fill="#c1957b" fill-opacity="0.501961" points="141,71 162,1 143,-16" />
<polygon fill="#dbbcae" fill-opacity="0.501961" points="-9,0 15,-16 46,14" />
<polygon fill="#f9b6ff" fill-opacity="0.501961" points="70,141 77,106 64,126" />
<polygon fill="#311104" fill-opacity="0.501961" points="63,129 58,133 68,147" />
<polygon fill="#c19581" fill-opacity="0.501961" points="23,69 10,69 3,46" />
<polygon fill="#8d543c" fill-opacity="0.501961" points="131,157 110,238 76,225" />
<polygon fill="#ac8e87" fill-opacity="0.501961" points="58,72 29,91 39,57" />
<polygon fill="#9f7461" fill-opacity="0.501961" points="129,10 124,36 28,16" />
<polygon fill="#fafefd" fill-opacity="0.501961" points="-16,-1 15,40 31,18" />
<polygon fill="#ecc5b1" fill-opacity="0.501961" points="121,106 131,102 134,130" />
<polygon fill="#c87e59" fill-opacity="0.501961" points="74,71 90,71 69,82" />
<polygon fill="#c49a7e" fill-opacity="0.501961" points="65,111 71,97 57,82" />
<polygon fill="#dda68e" fill-opacity="0.501961" points="38,120 36,148 44,130" />
<polygon fill="#baa099" fill-opacity="0.501961" points="87,23 104,49 128,40" />
<polygon fill="#7f675e" fill-opacity="0.501961" points="98,61 98,27 81,39" />
<polygon fill="#c89d89" fill-opacity="0.501961" points="51,149 60,141 65,184" />
<polygon fill="#110d07" fill-opacity="0.501961" points="38,222 -16,264 38,267" />
<polygon fill="#6a3a1f" fill-opacity="0.501961" points="68,150 79,142 75,132" />
<polygon fill="#6f5b4c" fill-opacity="0.501961" points="28,148 37,134 18,126" />
<polygon fill="#dbc2bd" fill-opacity="0.501961" points="77,41 90,26 69,31" />
<polygon fill="#715044" fill-opacity="0.501961" points="51,21 34,15 26,33" />
<polygon fill="#6f594f" fill-opacity="0.501961" points="157,82 138,90 133,130" />
<polygon fill="#883417" fill-opacity="0.501961" points="113,100 112,87 104,104" />
<polygon fill="#100f0f" fill-opacity="0.501961" points="61,106 37,111 37,119" />
<polygon fill="#7c4933" fill-opacity="0.501961" points="166,233 147,200 128,216" />
<polygon fill="#b9a49d" fill-opacity="0.501961" points="145,85 139,63 128,107" />
<polygon fill="#2b1f17" fill-opacity="0.501961" points="137,113 136,131 169,120" />
<polygon fill="#fbf3e7" fill-opacity="0.501961" points="79,103 91,96 54,77" />
<polygon fill="#83173c" fill-opacity="0.501961" points="79,109 74,121 90,111" />
<polygon fill="#19140a" fill-opacity="0.501961" points="5,112 25,146 -16,143" />
<polygon fill="#553627" fill-opacity="0.501961" points="154,38 173,66 144,80" />
<polygon fill="#483428" fill-opacity="0.501961" points="3,87 33,73 -16,75" />
<polygon fill="#452d24" fill-opacity="0.501961" points="53,260 113,244 26,224" />
<polygon fill="#d8a083" fill-opacity="0.501961" points="119,151 132,149 107,110" />
<polygon fill="#523c32" fill-opacity="0.501961" points="139,45 112,49 132,71" />
<polygon fill="#d35dc0" fill-opacity="0.501961" points="82,129 94,107 70,127" />
<polygon fill="#c7b1a8" fill-opacity="0.501961" points="101,71 87,46 86,61" />
<polygon fill="#bc7b5b" fill-opacity="0.501961" points="147,195 127,114 120,219" />
<polygon fill="#fcd0f4" fill-opacity="0.501961" points="98,121 104,93 91,95" />
<polygon fill="#92452a" fill-opacity="0.501961" points="39,143 52,145 50,191" />
<polygon fill="#b68d7a" fill-opacity="0.501961" points="40,13 10,0 29,17" />
<polygon fill="#7a5444" fill-opacity="0.501961" points="43,174 5,142 17,183" />
<polygon fill="#b39e92" fill-opacity="0.501961" points="35,115 26,105 38,97" />
<polygon fill="#ffffff" fill-opacity="0.501961" points="26,6 30,-2 2,-16" />
<polygon fill="#9a4f32" fill-opacity="0.501961" points="69,141 72,168 94,193" />
<polygon fill="#fffbf5" fill-opacity="0.501961" points="102,71 78,60 52,65" />
<polygon fill="#a37967" fill-opacity="0.501961" points="83,227 56,198 89,195" />
<polygon fill="#75574d" fill-opacity="0.501961" points="87,60 68,59 67,37" />
<polygon fill="#fcebfb" fill-opacity="0.501961" points="84,143 92,131 78,137" />
<polygon fill="#b5806a" fill-opacity="0.501961" points="32,182 33,140 47,191" />
<polygon fill="#fcf4ef" fill-opacity="0.501961" points="26,62 28,35 7,53" />
<polygon fill="#2e1d15" fill-opacity="0.501961" points="46,255 155,231 178,264" />
<polygon fill="#302015" fill-opacity="0.501961" points="18,254 12,174 -16,188" />
<polygon fill="#98634c" fill-opacity="0.501961" points="143,146 116,113 119,129" />
<polygon fill="#b0836e" fill-opacity="0.501961" points="99,182 94,137 70,148" />
<polygon fill="#edccfc" fill-opacity="0.501961" points="64,135 72,140 69,131" />
<polygon fill="#000a00" fill-opacity="0.501961" points="62,124 64,115 67,116" />
<polygon fill="#6d4e3c" fill-opacity="0.501961" points="-16,59 10,38 -16,27" />
<polygon fill="#474334" fill-opacity="0.501961" points="32,86 26,121 -16,109" />
<polygon fill="#d8b39e" fill-opacity="0.501961" points="137,19 153,15 165,-16" />
<polygon fill="#99684d" fill-opacity="0.501961" points="128,36 178,41 178,7" />
<polygon fill="#916b5b" fill-opacity="0.501961" points="24,208 44,231 53,213" />
<polygon fill="#998d96" fill-opacity="0.501961" points="33,77 53,83 10,86" />
<polygon fill="#000000" fill-opacity="0.501961" points="38,85 34,94 58,91" />
<polygon fill="#c7a79a" fill-opacity="0.501961" points="36,182 29,197 44,213" />
<polygon fill="#83675b" fill-opacity="0.501961" points="138,71 126,102 118,68" />
<polygon fill="#693d2d" fill-opacity="0.501961" points="73,254 89,218 118,202" />
<polygon fill="#644a40" fill-opacity="0.501961" points="113,41 109,66 133,60" />
<polygon fill="#340f06" fill-opacity="0.501961" points="52,144 41,147 45,132" />
<polygon fill="#9b7361" fill-opacity="0.501961" points="83,-16 14,-15 77,31" />
<polygon fill="#e860e1" fill-opacity="0.501961" points="78,107 86,98 97,97" />
<polygon fill="#d38d6b" fill-opacity="0.501961" points="115,92 106,76 104,95" />
<polygon fill="#825a46" fill-opacity="0.501961" points="103,31 122,32 126,22" />
<polygon fill="#221b0d" fill-opacity="0.501961" points="178,220 154,161 149,190" />
<polygon fill="#e69872" fill-opacity="0.501961" points="75,68 86,69 95,79" />
<polygon fill="#b08879" fill-opacity="0.501961" points="6,94 -16,72 -16,101" />
<polygon fill="#e1ae96" fill-opacity="0.501961" points="124,148 120,140 134,120" />
<polygon fill="#70422e" fill-opacity="0.501961" points="41,116 74,143 44,132" />
<polygon fill="#8b7a69" fill-opacity="0.501961" points="24,113 47,130 25,101" />
<polygon fill="#683f2f" fill-opacity="0.501961" points="63,105 55,106 65,111" />
<polygon fill="#b0c7b5" fill-opacity="0.501961" points="55,122 61,112 63,128" />
<polygon fill="#a98371" fill-opacity="0.501961" points="114,23 91,48 99,8" />
<polygon fill="#d0c3be" fill-opacity="0.501961" points="100,55 108,77 108,55" />
<polygon fill="#4d3226" fill-opacity="0.501961" points="83,244 130,243 172,214" />
<polygon fill="#fef1e2" fill-opacity="0.501961" points="90,65 97,88 107,75" />
<polygon fill="#c9aba0" fill-opacity="0.501961" points="57,58 49,79 35,85" />
<polygon fill="#8c6d63" fill-opacity="0.501961" points="37,69 28,55 53,14" />
</g>
</svg>