<svg viewBox="0 0 448 512" xmlns="http://www.w3.org/2000/svg"><path d="m268 416h24a12 12 0 0 0 12-12v-216a12 12 0 0 0 -12-12h-24a12 12 0 0 0 -12 12v216a12 12 0 0 0 12 12zm164-336h-82.41l-34-56.7a48 48 0 0 0 -41.18-23.3h-100.82a48 48 0 0 0 -41.16 23.3l-34.02 56.7h-82.41a16 16 0 0 0 -16 16v16a16 16 0 0 0 16 16h16v336a48 48 0 0 0 48 48h288a48 48 0 0 0 48-48v-336h16a16 16 0 0 0 16-16v-16a16 16 0 0 0 -16-16zm-260.16-29.09a6 6 0 0 1 5.16-2.91h94a6 6 0 0 1 5.15 2.91l17.46 29.09h-139.22zm196.16 413.09h-288v-336h288zm-212-48h24a12 12 0 0 0 12-12v-216a12 12 0 0 0 -12-12h-24a12 12 0 0 0 -12 12v216a12 12 0 0 0 12 12z" fill="#dedede"/></svg>